<svg xmlns="http://www.w3.org/2000/svg" viewBox="0 0 512 512" id="messages">
  <path fill="#173042" d="m447.372 413.112-17.544-52.629c-1-3.002-.674-6.23.775-9.043 13.184-25.615 18.629-55.858 12.925-87.736-8.746-48.868-44.53-89.475-90.943-105.048 11.976 28.924 15.628 61.084 9.645 92.984-12.155 64.837-64.074 116.246-129.191 127.924-8.429 1.512-16.945 2.248-25.396 2.463 19.776 21.336 46.173 36.503 75.619 41.784 31.682 5.682 61.784.393 87.322-12.594 2.802-1.425 6.007-1.742 8.99-.748l52.83 17.61c9.251 3.084 18.052-5.716 14.968-14.967z"></path>
  <path fill="#173042" d="M177.161 85.744C122.283 95.941 78.306 140.526 68.472 195.47c-5.704 31.878-.259 62.121 12.925 87.736 1.449 2.813 1.775 6.041.776 9.043l-17.545 52.629c-3.083 9.251 5.717 18.051 14.968 14.968l52.83-17.61c2.984-.994 6.19-.677 8.991.748 25.537 12.987 55.638 18.276 87.321 12.594 54.809-9.829 99.281-53.698 109.541-108.428 18.078-96.414-64.733-179.316-161.118-161.406zm34.938 177.536h-68.234c-6.73 0-12.185-5.454-12.185-12.185 0-6.73 5.455-12.185 12.185-12.185h68.234c6.731 0 12.185 5.455 12.185 12.185 0 6.731-5.454 12.185-12.185 12.185zm48.739-48.739H143.864c-6.73 0-12.185-5.454-12.185-12.185 0-6.73 5.455-12.185 12.185-12.185h116.973c6.731 0 12.185 5.455 12.185 12.185.001 6.731-5.453 12.185-12.184 12.185z"></path>
</svg>
