<svg id="SvgjsSvg1044" width="288" height="288" xmlns="http://www.w3.org/2000/svg" version="1.1" xmlns:xlink="http://www.w3.org/1999/xlink" xmlns:svgjs="http://svgjs.com/svgjs"><defs id="SvgjsDefs1045"></defs><g id="SvgjsG1046"><svg xmlns="http://www.w3.org/2000/svg" fill="none" viewBox="0 0 24 24" width="288" height="288"><path fill="#ffffff" fill-rule="evenodd" d="M12 3.5C7.30558 3.5 3.5 7.30558 3.5 12C3.5 16.6944 7.30558 20.5 12 20.5C16.6944 20.5 20.5 16.6944 20.5 12C20.5 7.30558 16.6944 3.5 12 3.5ZM2.5 12C2.5 6.75329 6.75329 2.5 12 2.5C17.2467 2.5 21.5 6.75329 21.5 12C21.5 17.2467 17.2467 21.5 12 21.5C6.75329 21.5 2.5 17.2467 2.5 12Z" clip-rule="evenodd" class="color000 svgShape"></path><path fill="#ffffff" fill-rule="evenodd" d="M6.5 12C6.5 11.7239 6.72386 11.5 7 11.5H16.5C16.7761 11.5 17 11.7239 17 12C17 12.2761 16.7761 12.5 16.5 12.5H7C6.72386 12.5 6.5 12.2761 6.5 12Z" clip-rule="evenodd" class="color000 svgShape"></path><path fill="#ffffff" fill-rule="evenodd" d="M13.1464 8.14645C13.3417 7.95118 13.6583 7.95118 13.8536 8.14645L17.3536 11.6464C17.5488 11.8417 17.5488 12.1583 17.3536 12.3536L13.8536 15.8536C13.6583 16.0488 13.3417 16.0488 13.1464 15.8536C12.9512 15.6583 12.9512 15.3417 13.1464 15.1464L16.2929 12L13.1464 8.85355C12.9512 8.65829 12.9512 8.34171 13.1464 8.14645Z" clip-rule="evenodd" class="color000 svgShape"></path></svg></g></svg>